<?xml version="1.0" encoding="UTF-8" standalone="no"?>
<!-- Created with Inkscape (http://www.inkscape.org/) -->

<svg
   xmlns:dc="http://purl.org/dc/elements/1.1/"
   xmlns:cc="http://creativecommons.org/ns#"
   xmlns:rdf="http://www.w3.org/1999/02/22-rdf-syntax-ns#"
   xmlns:svg="http://www.w3.org/2000/svg"
   xmlns="http://www.w3.org/2000/svg"
   xmlns:sodipodi="http://sodipodi.sourceforge.net/DTD/sodipodi-0.dtd"
   xmlns:inkscape="http://www.inkscape.org/namespaces/inkscape"
   width="297mm"
   height="210mm"
   viewBox="0 0 297 210"
   version="1.1"
   id="svg8"
   inkscape:version="0.92.4 (5da689c313, 2019-01-14)"
   sodipodi:docname="SixthSenseClone.svg">
  <defs
     id="defs2" />
  <sodipodi:namedview
     id="base"
     pagecolor="#ffffff"
     bordercolor="#666666"
     borderopacity="1.0"
     inkscape:pageopacity="0.0"
     inkscape:pageshadow="2"
     inkscape:zoom="1.5434028"
     inkscape:cx="385.34983"
     inkscape:cy="396.85039"
     inkscape:document-units="mm"
     inkscape:current-layer="g5149"
     showgrid="false"
     inkscape:window-width="1920"
     inkscape:window-height="1137"
     inkscape:window-x="1912"
     inkscape:window-y="-8"
     inkscape:window-maximized="1" />
  <metadata
     id="metadata5">
    <rdf:RDF>
      <cc:Work
         rdf:about="">
        <dc:format>image/svg+xml</dc:format>
        <dc:type
           rdf:resource="http://purl.org/dc/dcmitype/StillImage" />
        <dc:title />
      </cc:Work>
    </rdf:RDF>
  </metadata>
  <g
     id="g5149"
     inkscape:groupmode="layer"
     inkscape:label="SixthSenseClone (20190410 203142) - Overview"
     style="display:inline">
    <flowRoot
       id="flowRoot4989"
       style="font-style:normal;font-variant:normal;font-weight:bold;font-stretch:normal;font-size:2.75px;font-family:'Courier New';-inkscape-font-specification:'Courier New, Bold';text-align:justify;text-anchor:start"
       xml:space="preserve"><flowRegion
         id="flowRegion4945"><rect
           id="rect4943"
           y="10"
           x="4"
           width="100"
           height="80" /></flowRegion><flowPara
         id="flowPara4947">parameters</flowPara><flowPara
         id="flowPara4949">end of spine line....................  943 mm</flowPara><flowPara
         id="flowPara4951">nose cut width.......................   40 mm</flowPara><flowPara
         id="flowPara4953">tail cut width.......................   15 mm</flowPara><flowPara
         id="flowPara4955">position of upper spreader...........  255 mm</flowPara><flowPara
         id="flowPara4957">position of lower spreader...........  622 mm</flowPara><flowPara
         id="flowPara4959">end of leading edge.................. 1526 mm</flowPara><flowPara
         id="flowPara4961">end of leading edge, height..........   68 mm</flowPara><flowPara
         id="flowPara4963">span width........................... 2380 mm</flowPara><flowPara
         id="flowPara4965">position of inner standoff...........  310 mm</flowPara><flowPara
         id="flowPara4967">length of inner standoff.............  270 mm</flowPara><flowPara
         id="flowPara4969">offset of inner standoff, sail....... 12.5 mm</flowPara><flowPara
         id="flowPara4971">position of outer standoff...........  375 mm</flowPara><flowPara
         id="flowPara4973">length of outer standoff.............  260 mm</flowPara><flowPara
         id="flowPara4975">offset of outer standoff, sail.......  3.0 mm</flowPara><flowPara
         id="flowPara4977">leading edge, upper control point X..   50 %</flowPara><flowPara
         id="flowPara4979">leading edge, upper control point Y..  3.0 %</flowPara><flowPara
         id="flowPara4981">leading edge, lower control point X..   55 %</flowPara><flowPara
         id="flowPara4983">leading edge, lower control point Y..  2.0 %</flowPara><flowPara
         id="flowPara4985">trailing edge, inner control point...   50 %</flowPara><flowPara
         id="flowPara4987">trailing edge, outer control point...   70 %</flowPara></flowRoot>    <flowRoot
       id="flowRoot5033"
       style="font-style:normal;font-variant:normal;font-weight:bold;font-stretch:normal;font-size:2.75px;font-family:'Courier New';-inkscape-font-specification:'Courier New, Bold';text-align:justify;text-anchor:start"
       xml:space="preserve"><flowRegion
         id="flowRegion4993"><rect
           id="rect4991"
           y="85"
           x="4"
           width="100"
           height="80" /></flowRegion><flowPara
         id="flowPara4995">calculated values</flowPara><flowPara
         id="flowPara4997">total height................  955 mm</flowPara><flowPara
         id="flowPara4999">nose angle..................  102 deg</flowPara><flowPara
         id="flowPara5001">inner angle.................   98 deg</flowPara><flowPara
         id="flowPara5003">upper spreader..............  688 mm</flowPara><flowPara
         id="flowPara5005">lower spreader..............  802 mm</flowPara><flowPara
         id="flowPara5007">leading edge, upper part....  407 mm</flowPara><flowPara
         id="flowPara5009">leading edge, middle part...  586 mm</flowPara><flowPara
         id="flowPara5011">leading edge, lower part....  532 mm</flowPara><flowPara
         id="flowPara5013">spine, upper part...........  255 mm</flowPara><flowPara
         id="flowPara5015">spine, middle part..........  367 mm</flowPara><flowPara
         id="flowPara5017">spine, lower part...........  321 mm</flowPara><flowPara
         id="flowPara5019">nose cut....................    8 mm</flowPara><flowPara
         id="flowPara5021">tail cut....................    8 mm</flowPara><flowPara
         id="flowPara5023">cut spine...................  926 mm</flowPara><flowPara
         id="flowPara5025">cut leading edge............ 1506 mm</flowPara><flowPara
         id="flowPara5027">leading edge height.........   28 mm</flowPara><flowPara
         id="flowPara5029">sail area (projection)...... 7075 cm2</flowPara><flowPara
         id="flowPara5031">sail area (plan)............ 9384 cm2</flowPara></flowRoot>    <text
       id="text5035"
       style="font-style:normal;font-variant:normal;font-weight:bold;font-stretch:normal;font-size:5.5px;font-family:'Courier New';-inkscape-font-specification:'Courier New, Bold';text-align:justify;text-anchor:start"
       y="7.5"
       x="4">SixthSenseClone</text>
    <path
       id="path5037"
       inkscape:label="Nose_Standoff2"
       style="fill:none;stroke:#000000;stroke-width:0.30000001;stroke-linecap:round"
       d="m 157,90 37.5,62.5"
       inkscape:connector-curvature="0" />
    <path
       id="path5039"
       inkscape:label="Nose_Standoff2"
       style="fill:none;stroke:#000000;stroke-width:0.30000001;stroke-linecap:round"
       d="m 157,90 -37.5,62.5"
       inkscape:connector-curvature="0" />
    <path
       id="path5041"
       inkscape:label="Nose_Standoff1"
       style="fill:none;stroke:#000000;stroke-width:0.30000001;stroke-linecap:round"
       d="m 157,90 31,63.45"
       inkscape:connector-curvature="0" />
    <path
       id="path5043"
       inkscape:label="Nose_Standoff1"
       style="fill:none;stroke:#000000;stroke-width:0.30000001;stroke-linecap:round"
       d="m 157,90 -31,63.45"
       inkscape:connector-curvature="0" />
    <path
       id="path5045"
       inkscape:label="TrailingEdge"
       style="fill:none;stroke:#000000;stroke-width:0.30000001;stroke-linecap:round"
       d="m 157,184.3 0.4495,-0.66403 1.2865,-1.83406 2.0305,-2.76709 2.6815,-3.46309 3.2395,-3.92209 3.7045,-4.14405 4.0765,-4.12901 4.3555,-3.87695 4.5415,-3.38786 L 188,153.45 l 6.5,-0.95 9.45754,1.23682 10.28465,2.77284 10.68245,3.91639 10.65097,4.6675 10.19018,5.02615 9.30009,4.99235 7.9807,4.5661 6.23201,3.7474 4.05403,2.53623 1.44675,0.93263"
       inkscape:connector-curvature="0" />
    <path
       id="path5047"
       inkscape:label="TrailingEdge"
       style="fill:none;stroke:#000000;stroke-width:0.30000001;stroke-linecap:round"
       d="m 157,184.3 -0.4495,-0.66403 -1.2865,-1.83406 -2.0305,-2.76709 -2.6815,-3.46309 -3.2395,-3.92209 -3.7045,-4.14405 -4.0765,-4.12901 -4.3555,-3.87695 -4.5415,-3.38786 L 126,153.45 l -6.5,-0.95 -9.45754,1.23682 -10.284646,2.77284 -10.682457,3.91639 -10.650967,4.6675 -10.190178,5.02615 -9.300089,4.99235 -7.980702,4.5661 -6.232015,3.7474 -4.054029,2.53623 -1.446742,0.93263"
       inkscape:connector-curvature="0" />
    <path
       id="path5049"
       inkscape:label="Spine"
       style="fill:none;stroke:#000000;stroke-width:0.30000001;stroke-linecap:round"
       d="m 157,90 v 94.3"
       inkscape:connector-curvature="0" />
    <path
       id="path5051"
       inkscape:label="Spine"
       style="fill:none;stroke:#000000;stroke-width:0.30000001;stroke-linecap:round"
       d="m 157,90 v 94.3"
       inkscape:connector-curvature="0" />
    <path
       id="path5053"
       inkscape:label="Wingtip"
       style="fill:none;stroke:#000000;stroke-width:0.30000001;stroke-linecap:round"
       d="m 276,185.5 -1.22063,1.39441"
       inkscape:connector-curvature="0" />
    <path
       id="path5055"
       inkscape:label="Wingtip"
       style="fill:none;stroke:#000000;stroke-width:0.30000001;stroke-linecap:round"
       d="m 38,185.5 1.220635,1.39441"
       inkscape:connector-curvature="0" />
    <path
       id="path5057"
       inkscape:label="LeadingEdge"
       style="fill:none;stroke:#000000;stroke-width:0.30000001;stroke-linecap:round"
       d="m 157,90 8.8495,6.492221 8.07905,5.957679 7.38614,5.48209 6.77077,5.06547 6.23293,4.70782 5.77264,4.40913 5.38989,4.16941 5.08468,3.98864 4.85701,3.86685 4.70688,3.80402 4.63429,3.80015 4.63924,3.85525 4.72173,3.96932 4.88176,4.14234 5.11933,4.37433 5.43445,4.66528 5.8271,5.01521 6.29729,5.42409 6.84502,5.89194 L 276,185.5"
       inkscape:connector-curvature="0" />
    <path
       id="path5059"
       inkscape:label="LeadingEdge"
       style="fill:none;stroke:#000000;stroke-width:0.30000001;stroke-linecap:round"
       d="m 157,90 -8.8495,6.492221 -8.07905,5.957679 -7.38614,5.48209 -6.77077,5.06547 -6.23293,4.70782 -5.77264,4.40913 -5.38989,4.16941 -5.08468,3.98864 -4.857009,3.86685 -4.706879,3.80402 -4.634288,3.80015 -4.63924,3.85525 -4.72173,3.96932 -4.881762,4.14234 -5.119334,4.37433 -5.434445,4.66528 -5.827099,5.01521 -6.297291,5.42409 -6.845025,5.89194 L 38,185.5"
       inkscape:connector-curvature="0" />
    <path
       id="path5061"
       inkscape:label="LowerSpreader"
       style="fill:none;stroke:#000000;stroke-width:0.30000001;stroke-linecap:round"
       d="m 157,152.2 h 80.22651"
       inkscape:connector-curvature="0" />
    <path
       id="path5063"
       inkscape:label="LowerSpreader"
       style="fill:none;stroke:#000000;stroke-width:0.30000001;stroke-linecap:round"
       d="M 157,152.2 H 76.773488"
       inkscape:connector-curvature="0" />
    <path
       id="path5065"
       inkscape:label="UpperSpreader"
       style="fill:none;stroke:#000000;stroke-width:0.30000001;stroke-linecap:round"
       d="m 157,115.5 h 34.3987"
       inkscape:connector-curvature="0" />
    <path
       id="path5067"
       inkscape:label="UpperSpreader"
       style="fill:none;stroke:#000000;stroke-width:0.30000001;stroke-linecap:round"
       d="M 157,115.5 H 122.6013"
       inkscape:connector-curvature="0" />
    <path
       id="path5069"
       inkscape:label="centroid"
       style="fill:none;stroke:#c4c4c4;stroke-width:0.30000001;stroke-linecap:round"
       d="m 190.20602,140.40963 -0.5,-0.5 0.5,-0.5 0.5,0.5 z"
       inkscape:connector-curvature="0" />
    <path
       id="path5071"
       inkscape:label="Nose_Standoff2"
       style="fill:none;stroke:#000000;stroke-width:0.30000001;stroke-linecap:round"
       d="m 157,205 37.5,-26"
       inkscape:connector-curvature="0" />
    <path
       id="path5073"
       inkscape:label="Nose_Standoff2"
       style="fill:none;stroke:#000000;stroke-width:0.30000001;stroke-linecap:round"
       d="M 157,205 119.5,179"
       inkscape:connector-curvature="0" />
    <path
       id="path5075"
       inkscape:label="Nose_Standoff1"
       style="fill:none;stroke:#000000;stroke-width:0.30000001;stroke-linecap:round"
       d="m 157,205 31,-27"
       inkscape:connector-curvature="0" />
    <path
       id="path5077"
       inkscape:label="Nose_Standoff1"
       style="fill:none;stroke:#000000;stroke-width:0.30000001;stroke-linecap:round"
       d="M 157,205 126,178"
       inkscape:connector-curvature="0" />
    <path
       id="path5079"
       inkscape:label="TrailingEdge"
       style="fill:none;stroke:#000000;stroke-width:0.30000001;stroke-linecap:round"
       d="m 157,205 0.4495,-0.3915 1.2865,-1.1205 2.0305,-1.7685 2.6815,-2.3355 3.2395,-2.8215 3.7045,-3.2265 4.0765,-3.5505 4.3555,-3.7935 4.5415,-3.9555 L 188,178 l 6.5,1 9.45754,4.13673 10.28465,3.44732 10.68245,2.81773 10.65097,2.24795 10.19018,1.73799 9.30009,1.28786 7.9807,0.89754 6.23201,0.56703 4.05403,0.29636 1.44675,0.0855"
       inkscape:connector-curvature="0" />
    <path
       id="path5081"
       inkscape:label="TrailingEdge"
       style="fill:none;stroke:#000000;stroke-width:0.30000001;stroke-linecap:round"
       d="m 157,205 -0.4495,-0.3915 -1.2865,-1.1205 -2.0305,-1.7685 -2.6815,-2.3355 -3.2395,-2.8215 -3.7045,-3.2265 -4.0765,-3.5505 -4.3555,-3.7935 -4.5415,-3.9555 L 126,178 l -6.5,1 -9.45754,4.13673 -10.284646,3.44732 -10.682457,2.81773 -10.650967,2.24795 -10.190178,1.73799 -9.300089,1.28786 -7.980702,0.89754 -6.232015,0.56703 -4.054029,0.29636 -1.446742,0.0855"
       inkscape:connector-curvature="0" />
    <path
       id="path5083"
       inkscape:label="Spine"
       style="fill:none;stroke:#000000;stroke-width:0.30000001;stroke-linecap:round"
       d="m 157,205 v 0"
       inkscape:connector-curvature="0" />
    <path
       id="path5085"
       inkscape:label="Spine"
       style="fill:none;stroke:#000000;stroke-width:0.30000001;stroke-linecap:round"
       d="m 157,205 v 0"
       inkscape:connector-curvature="0" />
    <path
       id="path5087"
       inkscape:label="Wingtip"
       style="fill:none;stroke:#000000;stroke-width:0.30000001;stroke-linecap:round"
       d="m 276,198.2 -1.22063,-1.678"
       inkscape:connector-curvature="0" />
    <path
       id="path5089"
       inkscape:label="Wingtip"
       style="fill:none;stroke:#000000;stroke-width:0.30000001;stroke-linecap:round"
       d="m 38,198.2 1.220635,-1.678"
       inkscape:connector-curvature="0" />
    <path
       id="path5091"
       inkscape:label="LeadingEdge"
       style="fill:none;stroke:#000000;stroke-width:0.30000001;stroke-linecap:round"
       d="m 157,205 8.8495,-0.0568 8.07905,-0.0745 7.38614,-0.0941 6.77077,-0.11582 6.23293,-0.13955 5.77264,-0.1653 5.38989,-0.19307 5.08468,-0.22289 4.85701,-0.25472 4.70688,-0.28858 4.63429,-0.32448 4.63924,-0.3624 4.72173,-0.40235 4.88176,-0.44432 5.11933,-0.48834 5.43445,-0.53437 5.8271,-0.58243 6.29729,-0.63252 6.84502,-0.68465 L 276,198.2"
       inkscape:connector-curvature="0" />
    <path
       id="path5093"
       inkscape:label="LeadingEdge"
       style="fill:none;stroke:#000000;stroke-width:0.30000001;stroke-linecap:round"
       d="m 157,205 -8.8495,-0.0568 -8.07905,-0.0745 -7.38614,-0.0941 -6.77077,-0.11582 -6.23293,-0.13955 -5.77264,-0.1653 -5.38989,-0.19307 -5.08468,-0.22289 -4.857009,-0.25472 -4.706879,-0.28858 -4.634288,-0.32448 -4.63924,-0.3624 -4.72173,-0.40235 -4.881762,-0.44432 -5.119334,-0.48834 -5.434445,-0.53437 -5.827099,-0.58243 -6.297291,-0.63252 -6.845025,-0.68465 L 38,198.2"
       inkscape:connector-curvature="0" />
    <path
       id="path5095"
       inkscape:label="Nose_Standoff2"
       style="fill:none;stroke:#000000;stroke-width:0.30000001;stroke-linecap:round"
       d="m 292,90 -26,62.5"
       inkscape:connector-curvature="0" />
    <path
       id="path5097"
       inkscape:label="Nose_Standoff1"
       style="fill:none;stroke:#000000;stroke-width:0.30000001;stroke-linecap:round"
       d="m 292,90 -27,63.45"
       inkscape:connector-curvature="0" />
    <path
       id="path5099"
       inkscape:label="TrailingEdge"
       style="fill:none;stroke:#000000;stroke-width:0.30000001;stroke-linecap:round"
       d="m 292,184.3 -0.3915,-0.66403 -1.1205,-1.83406 -1.7685,-2.76709 -2.3355,-3.46309 -2.8215,-3.92209 -3.2265,-4.14405 -3.5505,-4.12901 -3.7935,-3.87695 -3.9555,-3.38786 L 265,153.45 l 1,-0.95 4.13673,1.23682 3.44732,2.77284 2.81773,3.91639 2.24795,4.6675 1.73799,5.02615 1.28786,4.99235 0.89754,4.5661 0.56703,3.7474 0.29636,2.53623 0.0855,0.93263"
       inkscape:connector-curvature="0" />
    <path
       id="path5101"
       inkscape:label="Spine"
       style="fill:none;stroke:#000000;stroke-width:0.30000001;stroke-linecap:round"
       d="m 292,90 v 94.3"
       inkscape:connector-curvature="0" />
    <path
       id="path5103"
       inkscape:label="Wingtip"
       style="fill:none;stroke:#000000;stroke-width:0.30000001;stroke-linecap:round"
       d="m 285.2,185.5 -1.678,1.39441"
       inkscape:connector-curvature="0" />
    <path
       id="path5105"
       inkscape:label="LeadingEdge"
       style="fill:none;stroke:#000000;stroke-width:0.30000001;stroke-linecap:round"
       d="m 292,90 -0.0568,6.492221 -0.0745,5.957679 -0.0941,5.48209 -0.11582,5.06547 -0.13955,4.70782 -0.1653,4.40913 -0.19307,4.16941 -0.22289,3.98864 -0.25472,3.86685 -0.28858,3.80402 -0.32448,3.80015 -0.3624,3.85525 -0.40235,3.96932 -0.44432,4.14234 -0.48834,4.37433 -0.53437,4.66528 -0.58243,5.01521 -0.63252,5.42409 -0.68465,5.89194 L 285.2,185.5"
       inkscape:connector-curvature="0" />
    <path
       id="path5107"
       inkscape:label="LowerSpreader"
       style="fill:none;stroke:#000000;stroke-width:0.30000001;stroke-linecap:round"
       d="m 292,152.2 h -2.97689"
       inkscape:connector-curvature="0" />
    <path
       id="path5109"
       inkscape:label="UpperSpreader"
       style="fill:none;stroke:#000000;stroke-width:0.30000001;stroke-linecap:round"
       d="m 292,115.5 h -0.41542"
       inkscape:connector-curvature="0" />
    <path
       id="path5111"
       inkscape:label="LeadingEdge1"
       style="fill:none;stroke:#c4c4c4;stroke-width:0.30000001;stroke-linecap:round"
       d="M 92,10 H 292"
       inkscape:connector-curvature="0" />
    <path
       id="path5113"
       inkscape:label="LeadingEdge1"
       style="fill:none;stroke:#c4c4c4;stroke-width:0.30000001;stroke-linecap:round"
       d="m 145.37141,10 v 2"
       inkscape:connector-curvature="0" />
    <path
       id="path5115"
       inkscape:label="LeadingEdge1"
       style="fill:none;stroke:#c4c4c4;stroke-width:0.30000001;stroke-linecap:round"
       d="m 222.24048,10 v 2"
       inkscape:connector-curvature="0" />
    <path
       id="path5117"
       inkscape:label="LeadingEdge2"
       style="fill:none;stroke:#000000;stroke-width:0.30000001;stroke-linecap:round"
       d="M 92,10 C 192,4 202,6 292,10"
       inkscape:connector-curvature="0" />
    <path
       id="path5119"
       inkscape:label="LeadingEdgeCP1"
       style="fill:none;stroke:#c4c4c4;stroke-width:0.30000001;stroke-linecap:round"
       d="M 192,3.5 191.5,4 192,4.5 192.5,4 Z"
       inkscape:connector-curvature="0" />
    <path
       id="path5121"
       inkscape:label="LeadingEdgeCP1"
       style="fill:none;stroke:#c4c4c4;stroke-width:0.30000001;stroke-linecap:round"
       d="M 202,5.5 201.5,6 202,6.5 202.5,6 Z"
       inkscape:connector-curvature="0" />
    <path
       id="path5123"
       inkscape:label="Wingtip"
       style="fill:none;stroke:#000000;stroke-width:0.30000001;stroke-linecap:round"
       d="m 239.16157,82.187748 -1.10375,2.243154"
       inkscape:connector-curvature="0" />
    <path
       id="path5125"
       inkscape:label="Nose_Standoff2"
       style="fill:none;stroke:#c4c4c4;stroke-width:0.30000001;stroke-linecap:round"
       d="m 102,15 47.36162,61.199483"
       inkscape:connector-curvature="0" />
    <path
       id="path5127"
       inkscape:label="Nose_Standoff1"
       style="fill:none;stroke:#c4c4c4;stroke-width:0.30000001;stroke-linecap:round"
       d="m 102,15 41.10961,63.45"
       inkscape:connector-curvature="0" />
    <path
       id="path5129"
       inkscape:label="Spine"
       style="fill:none;stroke:#000000;stroke-width:0.30000001;stroke-linecap:round"
       d="m 102,15 v 94.3"
       inkscape:connector-curvature="0" />
    <path
       id="path5131"
       inkscape:label="LowerSpreaderShadow"
       style="fill:none;stroke:#c4c4c4;stroke-width:0.30000001;stroke-linecap:round"
       d="m 102,77.2 h 40.29973 l 6.83456,-1.294275 45.05741,-18.306589"
       inkscape:connector-curvature="0" />
    <path
       id="path5133"
       inkscape:label="LeadingEdgeSecant"
       style="fill:none;stroke:#c4c4c4;stroke-width:0.30000001;stroke-linecap:round"
       d="M 102,15 239.16157,82.187748"
       inkscape:connector-curvature="0" />
    <path
       id="path5135"
       inkscape:label="UpperSpreaderShadow"
       style="fill:none;stroke:#c4c4c4;stroke-width:0.30000001;stroke-linecap:round"
       d="m 102,40.5 h 16.52159 l 2.80195,-0.530611 20.05612,-8.148696"
       inkscape:connector-curvature="0" />
    <path
       id="path5137"
       inkscape:label="TrailingEdgeCtrlPts"
       style="fill:none;stroke:#c4c4c4;stroke-width:0.30000001;stroke-linecap:round"
       d="M 122.5548,85.849048 180.66245,64.932222"
       inkscape:connector-curvature="0" />
    <path
       id="path5139"
       inkscape:label="LeadingEdge"
       style="fill:none;stroke:#000000;stroke-width:0.30000001;stroke-linecap:round"
       d="m 102,15 c 70.59642,29.479027 76.78262,34.21003 137.16157,67.187748"
       inkscape:connector-curvature="0" />
    <path
       id="path5141"
       inkscape:label="TrailingEdge"
       style="fill:none;stroke:#000000;stroke-width:0.30000001;stroke-linecap:round"
       d="m 102,109.3 c 0,0 20.5548,-23.450952 41.10961,-30.85 l 6.25201,-2.250517 c 31.30083,-11.267261 88.6962,8.231419 88.6962,8.231419"
       inkscape:connector-curvature="0" />
    <path
       id="path5143"
       inkscape:label="NoseCut"
       style="fill:none;stroke:#000000;stroke-width:0.30000001;stroke-linecap:round"
       d="M 101.5,15.838426 H 105"
       inkscape:connector-curvature="0" />
    <path
       id="path5145"
       inkscape:label="TailCut"
       style="fill:none;stroke:#000000;stroke-width:0.30000001;stroke-linecap:round"
       d="m 101.5,108.46452 h 2.25"
       inkscape:connector-curvature="0" />
    <path
       id="path5147"
       inkscape:label="Centroid"
       style="fill:none;stroke:#c4c4c4;stroke-width:0.30000001;stroke-linecap:round"
       d="m 142.09092,59.876835 -0.5,-0.5 0.5,-0.5 0.5,0.5 z"
       inkscape:connector-curvature="0" />
  </g>
  <g
     id="g5747"
     inkscape:groupmode="layer"
     inkscape:label="SixthSenseClone (20190410 203153) - Texture"
     style="display:none">
    <path
       id="path5725"
       inkscape:label="TextureBox"
       style="fill:#999999;stroke:#ff0000;stroke-width:0.2;stroke-linecap:round"
       d="m 2.5,42.5 h 160 v 160 H 2.5 v -160"
       inkscape:connector-curvature="0" />
    <path
       id="path5727"
       inkscape:label="LeadingEdge"
       style="fill:none;stroke:#000000;stroke-width:5;stroke-linecap:round"
       d="m 5,45 c 70.596418,29.479027 76.782619,34.21003 137.16157,67.18775"
       inkscape:connector-curvature="0" />
    <path
       id="path5729"
       inkscape:label="TrailingEdge"
       style="fill:none;stroke:#000000;stroke-width:2.5;stroke-linecap:round"
       d="m 5,139.3 c 0,0 20.554805,-23.45095 41.10961,-30.85 l 6.252013,-2.25052 c 31.300831,-11.267258 88.696197,8.23142 88.696197,8.23142"
       inkscape:connector-curvature="0" />
    <path
       id="path5731"
       inkscape:label="Wingtip"
       style="fill:none;stroke:#cccccc;stroke-width:0.2;stroke-linecap:round"
       d="m 142.16157,112.18775 -1.10375,2.24315"
       inkscape:connector-curvature="0" />
    <path
       id="path5733"
       inkscape:label="TrailingEdge"
       style="fill:none;stroke:#cccccc;stroke-width:0.2;stroke-linecap:round"
       d="m 5,139.3 0.5960893,-0.66403 1.7060488,-1.83406 2.6926795,-2.76709 3.5559814,-3.46309 4.295954,-3.92209 4.912598,-4.14405 5.405914,-4.12901 5.7759,-3.87695 6.022558,-3.38786 6.145887,-2.66177 6.252013,-2.25052 10.089595,-2.50746 11.154329,-0.9631 11.718122,0.27969 11.780975,1.22088 11.342886,1.86048 10.40387,2.1985 8.9639,2.23493 7.023,1.96978 4.58115,1.40303 1.63837,0.53469"
       inkscape:connector-curvature="0" />
    <path
       id="path5735"
       inkscape:label="Spine"
       style="fill:none;stroke:#cccccc;stroke-width:0.2;stroke-linecap:round"
       d="m 5,45 v 94.3"
       inkscape:connector-curvature="0" />
    <path
       id="path5737"
       inkscape:label="LeadingEdge"
       style="fill:none;stroke:#cccccc;stroke-width:0.2;stroke-linecap:round"
       d="m 5,45 10.122237,4.243372 9.244895,3.911828 8.456511,3.620033 7.757084,3.367988 7.146615,3.15569 6.625105,2.983142 6.192551,2.850342 5.848956,2.757291 5.594317,2.703989 5.428638,2.690435 5.351915,2.716631 5.36415,2.782574 5.465343,2.888268 5.655494,3.033709 5.934599,3.218899 6.30267,3.443838 6.75969,3.708526 7.30568,4.012965 7.94061,4.35715 8.66451,4.74108"
       inkscape:connector-curvature="0" />
    <path
       id="path5739"
       inkscape:label="Nose_Standoff2"
       style="fill:none;stroke:#cccccc;stroke-width:0.2;stroke-linecap:round"
       d="m 5,45 47.361623,61.19948"
       inkscape:connector-curvature="0" />
    <path
       id="path5741"
       inkscape:label="Nose_Standoff1"
       style="fill:none;stroke:#cccccc;stroke-width:0.2;stroke-linecap:round"
       d="m 5,45 41.10961,63.45"
       inkscape:connector-curvature="0" />
    <path
       id="path5743"
       inkscape:label="LowerSpreaderShadow"
       style="fill:none;stroke:#cccccc;stroke-width:0.2;stroke-linecap:round"
       d="m 5,107.2 h 40.299728 l 6.834559,-1.29427 45.057408,-18.306594"
       inkscape:connector-curvature="0" />
    <path
       id="path5745"
       inkscape:label="UpperSpreaderShadow"
       style="fill:none;stroke:#cccccc;stroke-width:0.2;stroke-linecap:round"
       d="m 5,70.5 h 16.521593 l 2.801949,-0.530611 20.056117,-8.148696"
       inkscape:connector-curvature="0" />
  </g>
</svg>
